<mxfile host="Electron" modified="2024-03-14T12:44:57.206Z" agent="Mozilla/5.0 (Windows NT 10.0; Win64; x64) AppleWebKit/537.36 (KHTML, like Gecko) draw.io/23.1.5 Chrome/120.0.6099.109 Electron/28.1.0 Safari/537.36" etag="ZCO4AbFkhZbu6LKO8_X3" version="23.1.5" type="device">
  <diagram name="Page-1" id="MdJHXQYPEy0fQOe6vmb8">
    <mxGraphModel dx="1434" dy="836" grid="1" gridSize="10" guides="1" tooltips="1" connect="1" arrows="1" fold="1" page="1" pageScale="1" pageWidth="850" pageHeight="1100" math="0" shadow="0">
      <root>
        <mxCell id="0" />
        <mxCell id="1" parent="0" />
        <mxCell id="Xd1dzO28lMKF7mVh2rYA-5" value="" style="edgeStyle=orthogonalEdgeStyle;rounded=0;orthogonalLoop=1;jettySize=auto;html=1;strokeWidth=3;" edge="1" parent="1" source="Xd1dzO28lMKF7mVh2rYA-1" target="Xd1dzO28lMKF7mVh2rYA-3">
          <mxGeometry relative="1" as="geometry" />
        </mxCell>
        <mxCell id="Xd1dzO28lMKF7mVh2rYA-1" value="NGINX Reverse Proxy&lt;br&gt;{{ proxy_fqdn }}&lt;br&gt;{{ proxy_ip }}" style="fontColor=#0066CC;verticalAlign=top;verticalLabelPosition=bottom;labelPosition=center;align=center;html=1;outlineConnect=0;fillColor=#CCCCCC;strokeColor=#6881B3;gradientColor=none;gradientDirection=north;strokeWidth=2;shape=mxgraph.networks.proxy_server;" vertex="1" parent="1">
          <mxGeometry x="280" y="270" width="105" height="105" as="geometry" />
        </mxCell>
        <mxCell id="Xd1dzO28lMKF7mVh2rYA-2" value="Client" style="fontColor=#0066CC;verticalAlign=top;verticalLabelPosition=bottom;labelPosition=center;align=center;html=1;outlineConnect=0;fillColor=#CCCCCC;strokeColor=#6881B3;gradientColor=none;gradientDirection=north;strokeWidth=2;shape=mxgraph.networks.pc;" vertex="1" parent="1">
          <mxGeometry x="60" y="287.5" width="100" height="70" as="geometry" />
        </mxCell>
        <mxCell id="Xd1dzO28lMKF7mVh2rYA-3" value="Web Server&lt;br&gt;{{ web_server_fqdn }}&lt;br&gt;{{ web_server_ip }}" style="fontColor=#0066CC;verticalAlign=top;verticalLabelPosition=bottom;labelPosition=center;align=center;html=1;outlineConnect=0;fillColor=#CCCCCC;strokeColor=#6881B3;gradientColor=none;gradientDirection=north;strokeWidth=2;shape=mxgraph.networks.web_server;" vertex="1" parent="1">
          <mxGeometry x="480" y="270" width="105" height="105" as="geometry" />
        </mxCell>
        <mxCell id="Xd1dzO28lMKF7mVh2rYA-4" style="edgeStyle=orthogonalEdgeStyle;rounded=0;orthogonalLoop=1;jettySize=auto;html=1;exitX=1;exitY=0.5;exitDx=0;exitDy=0;exitPerimeter=0;entryX=0;entryY=0.5;entryDx=0;entryDy=0;entryPerimeter=0;strokeWidth=3;" edge="1" parent="1" source="Xd1dzO28lMKF7mVh2rYA-2" target="Xd1dzO28lMKF7mVh2rYA-1">
          <mxGeometry relative="1" as="geometry" />
        </mxCell>
      </root>
    </mxGraphModel>
  </diagram>
</mxfile>
